<svg width="936" height="192" viewBox="0 0 936 192" fill="none" xmlns="http://www.w3.org/2000/svg">
<path d="M1.01328e-06 145V44.2H26.2L28.8 57.2C32 52.5333 36.2 48.8 41.4 46C46.7333 43.2 52.8667 41.8 59.8 41.8C64.7333 41.8 69.2 42.4667 73.2 43.8C77.2 45 80.7333 46.8667 83.8 49.4C86.8667 51.8 89.4 54.8667 91.4 58.6C95.2667 53.4 100.2 49.3333 106.2 46.4C112.2 43.3333 118.733 41.8 125.8 41.8C134.867 41.8 142.333 43.6 148.2 47.2C154.2 50.8 158.667 56 161.6 62.8C164.533 69.6 166 77.8667 166 87.6V145H136.2V90.2C136.2 82.8667 134.733 77.2 131.8 73.2C129 69.0667 124.467 67 118.2 67C114.2 67 110.667 68 107.6 70C104.533 72 102.133 74.8 100.4 78.4C98.8 82 98 86.3333 98 91.4V145H68.2V90.2C68.2 82.8667 66.7333 77.2 63.8 73.2C60.8667 69.0667 56.1333 67 49.6 67C45.8667 67 42.4667 68 39.4 70C36.4667 72 34.1333 74.8 32.4 78.4C30.8 82 30 86.3333 30 91.4V145H1.01328e-06ZM181.416 145V44.2H211.416V145H181.416ZM196.416 32.6C191.082 32.6 186.749 31.0667 183.416 28C180.082 24.9333 178.416 21.0667 178.416 16.4C178.416 11.6 180.082 7.66666 183.416 4.6C186.749 1.53333 191.082 -4.76837e-06 196.416 -4.76837e-06C201.882 -4.76837e-06 206.282 1.53333 209.616 4.6C213.082 7.66666 214.816 11.6 214.816 16.4C214.816 21.0667 213.082 24.9333 209.616 28C206.282 31.0667 201.882 32.6 196.416 32.6ZM227.852 145V44.2H254.052L256.452 60.4C259.518 54.8 263.852 50.3333 269.452 47C275.052 43.5333 281.852 41.8 289.852 41.8C298.252 41.8 305.318 43.6 311.052 47.2C316.785 50.8 321.118 56 324.052 62.8C327.118 69.4667 328.652 77.6667 328.652 87.4V145H298.852V90.2C298.852 82.8667 297.252 77.2 294.052 73.2C290.985 69.0667 286.052 67 279.252 67C275.252 67 271.585 68 268.252 70C265.052 71.8667 262.518 74.6 260.652 78.2C258.785 81.8 257.852 86.1333 257.852 91.2V145H227.852ZM324.833 189V163.6H333.033C337.033 163.6 339.899 162.733 341.633 161C343.366 159.4 344.233 156.8 344.233 153.2V44.2H374.033V153C374.033 161.8 372.499 168.8 369.433 174C366.499 179.333 362.299 183.133 356.833 185.4C351.366 187.8 344.899 189 337.433 189H324.833ZM359.233 32.6C353.899 32.6 349.566 31.0667 346.233 28C342.899 24.9333 341.233 21.0667 341.233 16.4C341.233 11.6 342.899 7.66666 346.233 4.6C349.566 1.53333 353.966 -4.76837e-06 359.433 -4.76837e-06C364.766 -4.76837e-06 369.099 1.53333 372.433 4.6C375.766 7.66666 377.433 11.6 377.433 16.4C377.433 21.0667 375.766 24.9333 372.433 28C369.099 31.0667 364.699 32.6 359.233 32.6ZM428.273 147.4C419.873 147.4 412.74 145.667 406.873 142.2C401.14 138.733 396.74 133.667 393.673 127C390.74 120.2 389.273 111.933 389.273 102.2V44.2H419.273V99.2C419.273 106.667 420.807 112.4 423.873 116.4C426.94 120.267 431.873 122.2 438.673 122.2C442.807 122.2 446.473 121.267 449.673 119.4C453.007 117.533 455.54 114.8 457.273 111.2C459.14 107.6 460.073 103.2 460.073 98V44.2H490.073V145H463.873L461.473 129C458.54 134.467 454.273 138.933 448.673 142.4C443.073 145.733 436.273 147.4 428.273 147.4ZM573.255 145L531.655 89.8L568.655 44.2H604.055L554.255 102.6V78.6L610.455 145H573.255ZM506.055 145V0.999994H536.055V145H506.055ZM645.689 147.4C637.289 147.4 630.289 146.067 624.689 143.4C619.222 140.733 615.156 137.133 612.489 132.6C609.956 127.933 608.689 122.8 608.689 117.2C608.689 111.2 610.156 105.933 613.089 101.4C616.156 96.7333 620.889 93.0667 627.289 90.4C633.689 87.6 641.756 86.2 651.489 86.2H675.889C675.889 81.6667 675.289 77.9333 674.089 75C673.022 72.0667 671.222 69.8667 668.689 68.4C666.156 66.9333 662.689 66.2 658.289 66.2C653.622 66.2 649.689 67.1333 646.489 69C643.289 70.8667 641.289 73.8 640.489 77.8H611.689C612.356 70.6 614.689 64.3333 618.689 59C622.822 53.6667 628.289 49.4667 635.089 46.4C641.889 43.3333 649.689 41.8 658.489 41.8C668.089 41.8 676.422 43.4 683.489 46.6C690.556 49.6667 696.022 54.2 699.889 60.2C703.889 66.2 705.889 73.6667 705.889 82.6V145H680.889L677.289 130.4C675.822 132.933 674.089 135.267 672.089 137.4C670.089 139.4 667.756 141.2 665.089 142.8C662.422 144.267 659.489 145.4 656.289 146.2C653.089 147 649.556 147.4 645.689 147.4ZM653.089 124.6C656.289 124.6 659.089 124.067 661.489 123C663.889 121.933 665.956 120.467 667.689 118.6C669.422 116.733 670.822 114.6 671.889 112.2C673.089 109.667 673.956 106.933 674.489 104V103.8H655.089C651.756 103.8 648.956 104.267 646.689 105.2C644.556 106 642.956 107.2 641.889 108.8C640.822 110.4 640.289 112.267 640.289 114.4C640.289 116.667 640.822 118.6 641.889 120.2C643.089 121.667 644.622 122.8 646.489 123.6C648.489 124.267 650.689 124.6 653.089 124.6ZM720.82 145V44.2H747.02L749.42 60.4C752.487 54.8 756.82 50.3333 762.42 47C768.02 43.5333 774.82 41.8 782.82 41.8C791.22 41.8 798.287 43.6 804.02 47.2C809.754 50.8 814.087 56 817.02 62.8C820.087 69.4667 821.62 77.6667 821.62 87.4V145H791.82V90.2C791.82 82.8667 790.22 77.2 787.02 73.2C783.954 69.0667 779.02 67 772.22 67C768.22 67 764.554 68 761.22 70C758.02 71.8667 755.487 74.6 753.62 78.2C751.754 81.8 750.82 86.1333 750.82 91.2V145H720.82ZM881.002 191.4C871.135 191.4 862.602 190.2 855.402 187.8C848.202 185.533 842.602 182.067 838.602 177.4C834.735 172.733 832.802 166.867 832.802 159.8C832.802 154.733 834.135 150 836.802 145.6C839.602 141.2 843.535 137.333 848.602 134C853.668 130.533 859.735 127.667 866.802 125.4L876.802 140.6C870.935 142.333 866.535 144.6 863.602 147.4C860.802 150.2 859.402 153.333 859.402 156.8C859.402 159.467 860.335 161.733 862.202 163.6C864.068 165.467 866.602 166.867 869.802 167.8C873.135 168.733 876.802 169.2 880.802 169.2C884.668 169.2 888.002 168.733 890.802 167.8C893.735 166.867 896.002 165.467 897.602 163.6C899.335 161.867 900.202 159.733 900.202 157.2C900.202 153.867 899.068 151.2 896.802 149.2C894.535 147.2 889.868 145.933 882.802 145.4C876.268 144.867 870.335 144.133 865.002 143.2C859.802 142.133 855.135 140.867 851.002 139.4C847.002 137.933 843.535 136.333 840.602 134.6C837.668 132.867 835.402 131.133 833.802 129.4V124.8L855.802 100.6L876.402 107L849.802 134L859.002 118.8C860.335 119.6 861.735 120.4 863.202 121.2C864.668 121.867 866.468 122.467 868.602 123C870.735 123.533 873.402 124.067 876.602 124.6C879.802 125 883.935 125.467 889.002 126C897.668 126.8 904.802 128.467 910.402 131C916.135 133.4 920.335 136.733 923.002 141C925.802 145.267 927.202 150.467 927.202 156.6C927.202 162.6 925.535 168.267 922.202 173.6C918.868 178.933 913.802 183.2 907.002 186.4C900.202 189.733 891.535 191.4 881.002 191.4ZM881.202 115.8C872.802 115.8 865.535 114.133 859.402 110.8C853.268 107.467 848.535 103.067 845.202 97.6C841.868 92 840.202 85.7333 840.202 78.8C840.202 72 841.868 65.8667 845.202 60.4C848.535 54.8 853.268 50.3333 859.402 47C865.535 43.5333 872.802 41.8 881.202 41.8C889.735 41.8 897.068 43.5333 903.202 47C909.335 50.3333 914.002 54.8 917.202 60.4C920.402 65.8667 922.002 72 922.002 78.8C922.002 85.7333 920.402 92 917.202 97.6C914.002 103.067 909.335 107.467 903.202 110.8C897.068 114.133 889.735 115.8 881.202 115.8ZM881.202 93.2C885.735 93.2 889.468 92 892.402 89.6C895.335 87.2 896.802 83.6667 896.802 79C896.802 74.3333 895.335 70.8 892.402 68.4C889.468 66 885.735 64.8 881.202 64.8C876.668 64.8 872.868 66 869.802 68.4C866.868 70.8 865.402 74.3333 865.402 79C865.402 83.6667 866.868 87.2 869.802 89.6C872.868 92 876.668 93.2 881.202 93.2ZM898.002 64.8L893.602 44.2H935.402V61.2L898.002 64.8Z" fill="black"/>
</svg>
